<svg xmlns="http://www.w3.org/2000/svg" xmlns:xlink="http://www.w3.org/1999/xlink" width="1173.461" height="736.771" viewBox="0 0 1173.461 736.771">
  <defs>
    <clipPath id="clip-path">
      <path id="Path_23" data-name="Path 23" d="M118.057,747.828H518.677V328.217h772.842V747.828H838.712v317.16H126.5Z" transform="translate(-64 -18)" fill="none" stroke="#707070" stroke-width="1"/>
    </clipPath>
    <clipPath id="clip-path-2">
      <rect id="Rectangle_28" data-name="Rectangle 28" width="1105.9" height="759.581" fill="none"/>
    </clipPath>
  </defs>
  <g id="Mask_Group_4" data-name="Mask Group 4" transform="translate(-54.057 -310.217)" clip-path="url(#clip-path)">
    <g id="Group_10" data-name="Group 10" transform="matrix(0.966, 0.259, -0.259, 0.966, 195.202, 176.791)">
      <g id="Group_9" data-name="Group 9" transform="translate(0)">
        <g id="Group_8" data-name="Group 8" clip-path="url(#clip-path-2)">
          <path id="Path_11" data-name="Path 11" d="M750.466,1.433C739.615,106.718,692.448,192.3,609.857,256.214c-122.8,95.026-260.862,109.68-399.269,42.377C89.425,239.673,19.495,139.312,2.246,0H0C17.283,140.242,87.641,241.28,209.614,300.594c57.541,27.98,115.036,42.076,171.4,42.076a334.987,334.987,0,0,0,35.46-1.881c67.508-7.19,133.031-35.054,194.747-82.814C694.372,193.628,741.834,107.45,752.7,1.444c-.427.009-.847.03-1.277.03-.324,0-.634-.037-.958-.041" transform="translate(0 416.911)" fill="#10b1d7"/>
          <path id="Path_12" data-name="Path 12" d="M335.06,292.744c-76.452,1.5-145.774-21.481-206.029-68.307C56.425,168.02,13.873,92.626,2.172,0,1.456.2.739.4,0,.567c11.822,93.1,54.64,168.888,127.662,225.63,60.671,47.147,130.466,70.284,207.442,68.773a330.685,330.685,0,0,0,222.346-91.6C613.272,150.107,647.9,81.009,658.8,1.913h-2.253C630.771,187.526,476.562,289.966,335.06,292.744" transform="translate(47.457 415)" fill="#10b1d7"/>
          <path id="Path_13" data-name="Path 13" d="M26.237,330.206C33.954,123.685,199.992,1.278,355.978,2.233c77.865.48,146.934,24.354,205.287,70.959,59.442,47.478,98.244,107.726,115.922,179.744h2.3c-17.729-72.73-56.829-133.566-116.829-181.48C503.9,24.527,434.371.49,355.994.006,276.389-.484,195.438,31.449,133.92,87.621,66.846,148.866,27.854,234.575,24.053,329.053H0v2.228H26.2Z" transform="translate(372.8 47.079)" fill="#f17"/>
          <path id="Path_14" data-name="Path 14" d="M85.5,131.553C131.233,78.279,212.71,12.79,341.138,3.331c108.119-7.964,209.9,27.438,286.6,99.688,64.827,61.068,105.673,141.854,115.871,226.87h2.248c-10.208-85.629-51.317-167-116.592-228.491C552.107,28.716,449.723-6.9,340.973,1.108,211.782,10.624,129.818,76.508,83.808,130.1,41.311,179.6,11.907,240.353,0,300.014H2.271C14.153,240.87,43.346,180.654,85.5,131.553" transform="translate(360.043 -0.001)" fill="#f17"/>
          <path id="Path_15" data-name="Path 15" d="M159.078,6.146c56.517-11.8,115.5,3.335,161.824,41.52,33.768,27.836,56.882,64.667,66.835,105.1.808.14,1.61.285,2.4.464-9.928-41.291-33.4-78.912-67.82-107.285C275.47,7.329,215.8-7.972,158.623,3.967,75.226,21.377,18.558,75.888,0,153.553H2.3C20.8,77.025,76.79,23.326,159.078,6.146" transform="translate(535.703 176.335)" fill="#7cff01"/>
          <path id="Path_16" data-name="Path 16" d="M245.827,49.89C201.689,4.2,135.242-12.1,80.487,9.332,45.5,23.03,17.727,46.886,0,76.865a18.78,18.78,0,0,1,3.194-1C20.721,47.307,47.622,24.59,81.3,11.408,135.229-9.7,200.7,6.383,244.224,51.438c18.861,19.525,31.062,42.852,37.474,72.029.574-.8,1.144-1.6,1.764-2.352-6.6-28.718-18.877-51.806-37.635-71.225" transform="translate(597.44 223.814)" fill="#7cff01"/>
          <path id="Path_17" data-name="Path 17" d="M68.835,116.606c36.792,30.858,81.489,47.291,126.61,47.291a184.856,184.856,0,0,0,36.112-3.557C319.866,142.759,378.633,84,394.64,0h-2.278c-15.97,82.85-74.048,140.8-161.241,158.157-56.126,11.175-114.753-4.593-160.855-43.257C34.025,84.5,10.309,43.936,2.269,0H0C8.061,44.6,32.08,85.778,68.835,116.606" transform="translate(178.981 416.913)" fill="#7cff01"/>
          <path id="Path_18" data-name="Path 18" d="M33.368,65.59c31.184,34.427,74.728,53.382,117.734,53.38a139.667,139.667,0,0,0,48.437-8.536C250.735,91.524,286.817,51.111,299.267,1c-.7-.305-1.378-.648-2.055-1C285.04,49.609,249.4,89.643,198.768,108.344a137.322,137.322,0,0,1-47.677,8.4c-42.377,0-85.321-18.7-116.071-52.649C19.284,46.724,8.584,26.7,2.326,2.634H0C6.325,27.31,17.254,47.8,33.368,65.59" transform="translate(227.398 414.279)" fill="#7cff01"/>
          <path id="Path_19" data-name="Path 19" d="M373.93,48.333C327.539,13.637,275.206-2.1,213.943.224c-59.961,2.271-110.5,24.46-150.213,65.944C36.172,94.956,14.858,132.017,0,176.768c.609.423,1.231.808,1.83,1.258l.191.142c36.3-108.794,111.274-171.9,212-175.72,60.735-2.3,112.6,13.29,158.57,47.668,50.913,38.073,82.272,89.363,93.566,152.8.641-.53,1.323-1.013,1.993-1.511C456.6,137.919,425.022,86.544,373.93,48.333" transform="translate(501.596 135.914)" fill="#ec891d"/>
          <path id="Path_20" data-name="Path 20" d="M112.684,58.318c100.974-70.011,209.873-74.542,314.931-13.1C504.46,90.154,550.167,157.4,563.969,245.45c.836.349,1.633.769,2.439,1.169C552.8,157.138,506.646,88.855,428.738,43.292c-105.856-61.906-215.585-57.343-317.324,13.2C53.662,96.529,16.385,150.2,0,216.571q1.206-.272,2.427-.5C18.824,150.706,55.71,97.82,112.684,58.318" transform="translate(450.247 86.521)" fill="#ec891d"/>
          <path id="Path_21" data-name="Path 21" d="M140.637,210.916c48.454,27.6,97.715,41.562,146.592,41.562q5.05,0,10.1-.2c51.972-2.048,103.461-19.945,153.038-53.191C520.11,152.317,561.245,85.519,573.007.175c-.746.044-1.495.08-2.257.09C559,84.77,518.2,150.916,449.124,197.236c-98.561,66.093-204.851,70.155-307.385,11.746C61.879,163.487,14.782,93.281,1.323,0L0,6.145c14.649,91.09,61.8,159.863,140.637,204.771" transform="translate(90.606 418.103)" fill="#01ffe9"/>
          <path id="Path_22" data-name="Path 22" d="M83.613,151.143c48.01,40.285,104.589,59.605,168.165,57.424,54.135-1.856,109.244-24.641,151.187-62.51,29.491-26.628,64.536-71.726,77-141.544h-2.354C454.132,131.671,348.4,203.025,251.7,206.341c-63.009,2.161-119.08-16.985-166.654-56.9C39.573,111.283,11.884,61.573,2.448,1.346Q1.2.712,0,0C9.257,61.527,37.286,112.271,83.613,151.143" transform="translate(136.23 412.398)" fill="#01ffe9"/>
        </g>
      </g>
    </g>
  </g>
</svg>
